# xmcd CD database file
#
# Track frame offsets:
#	150
#	13121
#	34383
#	46185
#	65510
#
# Disc length: 1183 seconds
#
# Revision: 0
# Processed by: cddbd v1.5.2PL0 Copyright (c) Steve Scherf et al.
# Submitted via: CDex 1.70
#
DISCID=3d049d05
DTITLE=Michael Lloyd - Michael Lloyd
DYEAR=2014
DGENRE=Country
TTITLE0=You Make My Dreams
TTITLE1=From Above
TTITLE2=Mama Tried
TTITLE3=KD
TTITLE4=From Above (Acoustic)
EXTD=YEAR: 2014
EXTT0=
EXTT1=
EXTT2=
EXTT3=
EXTT4=
PLAYORDER=
